<?xml version="1.0" encoding="UTF-8" standalone="no"?><!DOCTYPE svg PUBLIC "-//W3C//DTD SVG 1.1//EN" "http://www.w3.org/Graphics/SVG/1.1/DTD/svg11.dtd"><svg width="100%" height="100%" viewBox="0 0 925 184" version="1.1" xmlns="http://www.w3.org/2000/svg" xmlns:xlink="http://www.w3.org/1999/xlink" xml:space="preserve" xmlns:serif="http://www.serif.com/" style="fill-rule:evenodd;clip-rule:evenodd;stroke-linecap:round;stroke-linejoin:round;stroke-miterlimit:1.5;"><path d="M5.417,139.413c7.686,-1.565 23.057,-4.696 29.363,-13.137c6.306,-8.442 7.853,-43.699 8.475,-37.513c0.622,6.186 -8.914,79.381 3.13,85.8c13.776,7.342 66.214,-76.268 63.901,-83.624c-0.876,-2.786 -30.95,52.331 -34.505,59.107c-0.927,1.767 14.435,13.747 44.917,2.96c10.486,-3.71 48.425,-26.442 56.19,-32.539c7.847,-6.162 18.6,-15.534 18.089,-26.683c-0.097,-2.108 -7.037,-4.179 -13.884,-3.398c-5.448,0.621 -10.743,3.707 -13.164,5.269c-7.878,5.081 -15.937,21.342 -17.199,32.856c-0.632,5.761 -0.598,15.262 0.892,23.44c1.488,8.166 12.053,16.218 17.232,16.706c9.068,0.855 21.62,-1.146 46.829,-15.459c25.428,-14.437 52.042,-39.506 61.58,-48.842c6.325,-6.191 10.883,-11.516 13.002,-14.427c1.034,-1.421 -3.97,-3.762 -4.788,-2.207c-6.052,11.503 -28.264,58.178 -31.525,71.224c-1.122,4.491 7.752,8.978 11.962,7.054c21.2,-9.686 93.494,-43.91 122.381,-60.355c3.373,-1.92 11.716,-7.038 10.488,-9.962c-1.733,-4.125 -13.715,-0.343 -14.981,3.948c-3.014,10.215 -2.49,44.097 -5.88,55.702c-1.876,6.424 -14.097,12.932 -14.46,13.926c-0.363,0.995 8.139,-5.382 12.283,-7.957c37.614,-23.375 187.971,-107.256 213.399,-132.295c8.324,-8.196 8.828,-19.922 -8.22,-23.128c-13.804,-2.596 -48.375,6.287 -59.131,12.214c-19.742,10.878 -36.025,29.355 -48.737,52.068c-12.712,22.713 -11.879,93.53 -6.038,91.902c9.551,-2.662 35.007,-32.636 42.329,-30.686c7.321,1.951 1.706,26.79 4.094,32.757c1.322,3.304 7.009,4.555 10.232,3.047c18.242,-8.536 81.818,-47.304 99.219,-54.261c4.195,-1.677 5.936,8.065 5.189,12.52c-1.543,9.198 -14.552,38.667 -14.446,42.666c0.106,3.999 47.819,-49.777 61.188,-55.221c9.024,-3.675 32.184,-3.163 34.108,3.885c1.924,7.048 -8.618,34.272 -10.201,43.219c-1,5.65 6.242,12.678 11.537,10.466c18.53,-7.743 71.782,-51.288 92.417,-61.739c6.12,-3.1 15.778,-8.789 15.041,-1.968c-1.089,10.074 -37.644,54.953 -26.671,67.248c4.733,5.303 22.147,6.798 40.481,-7.079c22.612,-17.115 49.095,-52.438 54.352,-55.542c2.328,-1.375 -18.526,50.536 -22.164,56.175c-3.037,4.707 40.322,-19.586 55.267,-26.636" style="fill:none;stroke:#000;stroke-width:10.83px;"/></svg>